<svg width="171" height="46" viewBox="0 0 171 46" fill="none" xmlns="http://www.w3.org/2000/svg">
<path d="M0.84 0.199997H27.72C32.2 0.199997 35.4427 1.224 37.448 3.272C39.496 5.27733 40.52 8.52 40.52 13V19.4C40.52 23.88 39.496 27.144 37.448 29.192C35.4427 31.1973 32.2 32.2 27.72 32.2H12.36V45H0.84V0.199997ZM29 13C29 10.44 27.72 9.16 25.16 9.16H12.36V23.24H25.16C27.72 23.24 29 21.96 29 19.4V13ZM57.7975 36.04H81.1575V45H46.2775V0.199997H57.7975V36.04ZM114.453 0.199997H125.973V32.84C125.973 37.32 124.949 40.584 122.901 42.632C120.895 44.6373 117.653 45.64 113.173 45.64H98.4525C93.9725 45.64 90.7085 44.6373 88.6605 42.632C86.6552 40.584 85.6525 37.32 85.6525 32.84V0.199997H97.1725V32.84C97.1725 35.4 98.4525 36.68 101.013 36.68H110.613C113.173 36.68 114.453 35.4 114.453 32.84V0.199997ZM132.309 35.72C143.999 36.36 151.914 36.68 156.053 36.68C157.034 36.68 157.802 36.4027 158.357 35.848C158.954 35.2507 159.253 34.4613 159.253 33.48V27.72H144.533C140.053 27.72 136.789 26.7173 134.741 24.712C132.735 22.664 131.733 19.4 131.733 14.92V13C131.733 8.52 132.735 5.27733 134.741 3.272C136.789 1.224 140.053 0.199997 144.533 0.199997H166.997V9.16H147.093C144.533 9.16 143.253 10.44 143.253 13V14.28C143.253 16.84 144.533 18.12 147.093 18.12H158.613C162.794 18.12 165.866 19.1013 167.829 21.064C169.791 23.0267 170.773 26.0987 170.773 30.28V33.48C170.773 37.6613 169.791 40.7333 167.829 42.696C165.866 44.6587 162.794 45.64 158.613 45.64C156.437 45.64 154.133 45.5973 151.701 45.512L145.812 45.256C141.461 45.0427 136.959 44.744 132.309 44.36V35.72Z" fill="#00D0AA"/>
</svg>
